<?xml version="1.0" encoding="UTF-8" standalone="no"?>
<!DOCTYPE svg PUBLIC "-//W3C//DTD SVG 1.1//EN"
 "http://www.w3.org/Graphics/SVG/1.1/DTD/svg11.dtd">
<!-- Generated by graphviz version 2.47.3 (20210619.1520)
 -->
<!-- Title: dependencies Pages: 1 -->
<svg width="281pt" height="247pt"
 viewBox="0.00 0.00 281.00 246.80" xmlns="http://www.w3.org/2000/svg" xmlns:xlink="http://www.w3.org/1999/xlink">
<g id="graph0" class="graph" transform="scale(1 1) rotate(0) translate(4 242.8)">
<title>dependencies</title>
<polygon fill="white" stroke="transparent" points="-4,4 -4,-242.8 277,-242.8 277,4 -4,4"/>
<text text-anchor="middle" x="136.5" y="-8.2" font-family="sans-serif" font-size="14.00">dependencies</text>
<g id="clust1" class="cluster">
<title>cluster_UsersModule</title>
<polygon fill="none" stroke="black" stroke-dasharray="1,5" points="8,-32.8 8,-230.8 265,-230.8 265,-32.8 8,-32.8"/>
</g>
<g id="clust6" class="cluster">
<title>cluster_UsersModule_providers</title>
<polygon fill="none" stroke="black" points="16,-40.8 16,-92.8 257,-92.8 257,-40.8 16,-40.8"/>
</g>
<g id="clust4" class="cluster">
<title>cluster_UsersModule_exports</title>
<polygon fill="none" stroke="black" points="91,-170.8 91,-222.8 195,-222.8 195,-170.8 91,-170.8"/>
</g>
<!-- UserService  -->
<g id="node1" class="node">
<title>UserService </title>
<polygon fill="#fb8072" stroke="black" points="186.9,-214.8 99.1,-214.8 99.1,-178.8 186.9,-178.8 186.9,-214.8"/>
<text text-anchor="middle" x="143" y="-192.6" font-family="Times,serif" font-size="14.00">UserService </text>
</g>
<!-- UsersModule -->
<g id="node2" class="node">
<title>UsersModule</title>
<polygon fill="#8dd3c7" stroke="black" points="188.92,-149.8 185.92,-153.8 164.92,-153.8 161.92,-149.8 97.08,-149.8 97.08,-113.8 188.92,-113.8 188.92,-149.8"/>
<text text-anchor="middle" x="143" y="-127.6" font-family="Times,serif" font-size="14.00">UsersModule</text>
</g>
<!-- UsersModule&#45;&gt;UserService  -->
<g id="edge1" class="edge">
<title>UsersModule&#45;&gt;UserService </title>
<path fill="none" stroke="black" stroke-dasharray="5,2" d="M143,-149.91C143,-149.91 143,-168.79 143,-168.79"/>
<polygon fill="black" stroke="black" points="139.5,-168.79 143,-178.79 146.5,-168.79 139.5,-168.79"/>
</g>
<!-- UserDao -->
<g id="node3" class="node">
<title>UserDao</title>
<ellipse fill="#fdb462" stroke="black" cx="204" cy="-66.8" rx="45.2" ry="18"/>
<text text-anchor="middle" x="204" y="-62.6" font-family="Times,serif" font-size="14.00">UserDao</text>
</g>
<!-- UserDao&#45;&gt;UsersModule -->
<g id="edge2" class="edge">
<title>UserDao&#45;&gt;UsersModule</title>
<path fill="none" stroke="black" d="M173.68,-80.27C173.68,-80.27 173.68,-103.66 173.68,-103.66"/>
<polygon fill="black" stroke="black" points="170.18,-103.66 173.68,-113.66 177.18,-103.66 170.18,-103.66"/>
</g>
<!-- UserService -->
<g id="node4" class="node">
<title>UserService</title>
<ellipse fill="#fdb462" stroke="black" cx="82" cy="-66.8" rx="58.44" ry="18"/>
<text text-anchor="middle" x="82" y="-62.6" font-family="Times,serif" font-size="14.00">UserService</text>
</g>
<!-- UserService&#45;&gt;UsersModule -->
<g id="edge3" class="edge">
<title>UserService&#45;&gt;UsersModule</title>
<path fill="none" stroke="black" d="M118.75,-80.9C118.75,-80.9 118.75,-103.52 118.75,-103.52"/>
<polygon fill="black" stroke="black" points="115.26,-103.52 118.75,-113.52 122.26,-103.52 115.26,-103.52"/>
</g>
</g>
</svg>
