<?xml version="1.0" encoding="UTF-8" standalone="no"?>
<!DOCTYPE svg PUBLIC "-//W3C//DTD SVG 1.1//EN"
 "http://www.w3.org/Graphics/SVG/1.1/DTD/svg11.dtd">
<!-- Generated by graphviz version 2.47.3 (20210619.1520)
 -->
<!-- Title: dependencies Pages: 1 -->
<svg width="733pt" height="247pt"
 viewBox="0.00 0.00 733.00 246.80" xmlns="http://www.w3.org/2000/svg" xmlns:xlink="http://www.w3.org/1999/xlink">
<g id="graph0" class="graph" transform="scale(1 1) rotate(0) translate(4 242.8)">
<title>dependencies</title>
<polygon fill="white" stroke="transparent" points="-4,4 -4,-242.8 729,-242.8 729,4 -4,4"/>
<text text-anchor="middle" x="362.5" y="-8.2" font-family="sans-serif" font-size="14.00">dependencies</text>
<g id="clust1" class="cluster">
<title>cluster_AuthModule</title>
<polygon fill="none" stroke="black" stroke-dasharray="1,5" points="8,-32.8 8,-230.8 717,-230.8 717,-32.8 8,-32.8"/>
</g>
<g id="clust4" class="cluster">
<title>cluster_AuthModule_exports</title>
<polygon fill="none" stroke="black" points="323,-170.8 323,-222.8 429,-222.8 429,-170.8 323,-170.8"/>
</g>
<g id="clust3" class="cluster">
<title>cluster_AuthModule_imports</title>
<polygon fill="none" stroke="black" points="601,-40.8 601,-92.8 709,-92.8 709,-40.8 601,-40.8"/>
</g>
<g id="clust6" class="cluster">
<title>cluster_AuthModule_providers</title>
<polygon fill="none" stroke="black" points="16,-40.8 16,-92.8 593,-92.8 593,-40.8 16,-40.8"/>
</g>
<!-- UsersModule -->
<g id="node1" class="node">
<title>UsersModule</title>
<polygon fill="#8dd3c7" stroke="black" points="700.92,-84.8 697.92,-88.8 676.92,-88.8 673.92,-84.8 609.08,-84.8 609.08,-48.8 700.92,-48.8 700.92,-84.8"/>
<text text-anchor="middle" x="655" y="-62.6" font-family="Times,serif" font-size="14.00">UsersModule</text>
</g>
<!-- AuthModule -->
<g id="node2" class="node">
<title>AuthModule</title>
<polygon fill="#8dd3c7" stroke="black" points="419.55,-149.8 416.55,-153.8 395.55,-153.8 392.55,-149.8 332.45,-149.8 332.45,-113.8 419.55,-113.8 419.55,-149.8"/>
<text text-anchor="middle" x="376" y="-127.6" font-family="Times,serif" font-size="14.00">AuthModule</text>
</g>
<!-- UsersModule&#45;&gt;AuthModule -->
<g id="edge1" class="edge">
<title>UsersModule&#45;&gt;AuthModule</title>
<path fill="none" stroke="black" d="M655,-85.08C655,-106.12 655,-137.8 655,-137.8 655,-137.8 429.59,-137.8 429.59,-137.8"/>
<polygon fill="black" stroke="black" points="429.59,-134.3 419.59,-137.8 429.59,-141.3 429.59,-134.3"/>
</g>
<!-- AuthService  -->
<g id="node3" class="node">
<title>AuthService </title>
<polygon fill="#fb8072" stroke="black" points="420.98,-214.8 331.02,-214.8 331.02,-178.8 420.98,-178.8 420.98,-214.8"/>
<text text-anchor="middle" x="376" y="-192.6" font-family="Times,serif" font-size="14.00">AuthService </text>
</g>
<!-- AuthModule&#45;&gt;AuthService  -->
<g id="edge2" class="edge">
<title>AuthModule&#45;&gt;AuthService </title>
<path fill="none" stroke="black" stroke-dasharray="5,2" d="M376,-149.91C376,-149.91 376,-168.79 376,-168.79"/>
<polygon fill="black" stroke="black" points="372.5,-168.79 376,-178.79 379.5,-168.79 372.5,-168.79"/>
</g>
<!-- AuthService -->
<g id="node4" class="node">
<title>AuthService</title>
<ellipse fill="#fdb462" stroke="black" cx="526" cy="-66.8" rx="59.11" ry="18"/>
<text text-anchor="middle" x="526" y="-62.6" font-family="Times,serif" font-size="14.00">AuthService</text>
</g>
<!-- AuthService&#45;&gt;AuthModule -->
<g id="edge3" class="edge">
<title>AuthService&#45;&gt;AuthModule</title>
<path fill="none" stroke="black" d="M526,-84.82C526,-102.17 526,-125.8 526,-125.8 526,-125.8 429.79,-125.8 429.79,-125.8"/>
<polygon fill="black" stroke="black" points="429.79,-122.3 419.79,-125.8 429.79,-129.3 429.79,-122.3"/>
</g>
<!-- EncryptionUtils -->
<g id="node5" class="node">
<title>EncryptionUtils</title>
<ellipse fill="#fdb462" stroke="black" cx="376" cy="-66.8" rx="72.95" ry="18"/>
<text text-anchor="middle" x="376" y="-62.6" font-family="Times,serif" font-size="14.00">EncryptionUtils</text>
</g>
<!-- EncryptionUtils&#45;&gt;AuthModule -->
<g id="edge4" class="edge">
<title>EncryptionUtils&#45;&gt;AuthModule</title>
<path fill="none" stroke="black" d="M376,-84.91C376,-84.91 376,-103.79 376,-103.79"/>
<polygon fill="black" stroke="black" points="372.5,-103.79 376,-113.79 379.5,-103.79 372.5,-103.79"/>
</g>
<!-- JwtStrategy -->
<g id="node6" class="node">
<title>JwtStrategy</title>
<ellipse fill="#fdb462" stroke="black" cx="229" cy="-66.8" rx="56.76" ry="18"/>
<text text-anchor="middle" x="229" y="-62.6" font-family="Times,serif" font-size="14.00">JwtStrategy</text>
</g>
<!-- JwtStrategy&#45;&gt;AuthModule -->
<g id="edge5" class="edge">
<title>JwtStrategy&#45;&gt;AuthModule</title>
<path fill="none" stroke="black" d="M229,-84.82C229,-102.17 229,-125.8 229,-125.8 229,-125.8 322.29,-125.8 322.29,-125.8"/>
<polygon fill="black" stroke="black" points="322.29,-129.3 332.29,-125.8 322.29,-122.3 322.29,-129.3"/>
</g>
<!-- LocalStrategy -->
<g id="node7" class="node">
<title>LocalStrategy</title>
<ellipse fill="#fdb462" stroke="black" cx="89" cy="-66.8" rx="65.41" ry="18"/>
<text text-anchor="middle" x="89" y="-62.6" font-family="Times,serif" font-size="14.00">LocalStrategy</text>
</g>
<!-- LocalStrategy&#45;&gt;AuthModule -->
<g id="edge6" class="edge">
<title>LocalStrategy&#45;&gt;AuthModule</title>
<path fill="none" stroke="black" d="M89,-85.08C89,-106.12 89,-137.8 89,-137.8 89,-137.8 322.41,-137.8 322.41,-137.8"/>
<polygon fill="black" stroke="black" points="322.41,-141.3 332.41,-137.8 322.41,-134.3 322.41,-141.3"/>
</g>
</g>
</svg>
