<?xml version="1.0" encoding="UTF-8" standalone="no"?>
<!DOCTYPE svg PUBLIC "-//W3C//DTD SVG 1.1//EN"
 "http://www.w3.org/Graphics/SVG/1.1/DTD/svg11.dtd">
<!-- Generated by graphviz version 2.47.3 (20210619.1520)
 -->
<!-- Title: dependencies Pages: 1 -->
<svg width="1011pt" height="318pt"
 viewBox="0.00 0.00 1011.00 317.80" xmlns="http://www.w3.org/2000/svg" xmlns:xlink="http://www.w3.org/1999/xlink">
<g id="graph0" class="graph" transform="scale(1 1) rotate(0) translate(4 313.8)">
<title>dependencies</title>
<polygon fill="white" stroke="transparent" points="-4,4 -4,-313.8 1007,-313.8 1007,4 -4,4"/>
<text text-anchor="middle" x="501.5" y="-8.2" font-family="sans-serif" font-size="14.00">dependencies</text>
<g id="clust1" class="cluster">
<title>cluster_AppModule</title>
<polygon fill="none" stroke="black" stroke-dasharray="1,5" points="8,-108.8 8,-301.8 280,-301.8 280,-108.8 8,-108.8"/>
</g>
<g id="clust3" class="cluster">
<title>cluster_AppModule_imports</title>
<polygon fill="none" stroke="black" points="164,-116.8 164,-236.8 272,-236.8 272,-116.8 164,-116.8"/>
</g>
<g id="clust6" class="cluster">
<title>cluster_AppModule_providers</title>
<polygon fill="none" stroke="black" points="16,-184.8 16,-236.8 146,-236.8 146,-184.8 16,-184.8"/>
</g>
<g id="clust7" class="cluster">
<title>cluster_AuthModule</title>
<polygon fill="none" stroke="black" stroke-dasharray="1,5" points="288,-108.8 288,-176.8 995,-176.8 995,-108.8 288,-108.8"/>
</g>
<g id="clust10" class="cluster">
<title>cluster_AuthModule_exports</title>
<polygon fill="none" stroke="black" points="881,-116.8 881,-168.8 987,-168.8 987,-116.8 881,-116.8"/>
</g>
<g id="clust12" class="cluster">
<title>cluster_AuthModule_providers</title>
<polygon fill="none" stroke="black" points="296,-116.8 296,-168.8 873,-168.8 873,-116.8 296,-116.8"/>
</g>
<g id="clust13" class="cluster">
<title>cluster_UsersModule</title>
<polygon fill="none" stroke="black" stroke-dasharray="1,5" points="22,-32.8 22,-100.8 391,-100.8 391,-32.8 22,-32.8"/>
</g>
<g id="clust16" class="cluster">
<title>cluster_UsersModule_exports</title>
<polygon fill="none" stroke="black" points="279,-40.8 279,-92.8 383,-92.8 383,-40.8 279,-40.8"/>
</g>
<g id="clust18" class="cluster">
<title>cluster_UsersModule_providers</title>
<polygon fill="none" stroke="black" points="30,-40.8 30,-92.8 271,-92.8 271,-40.8 30,-40.8"/>
</g>
<!-- AuthModule -->
<g id="node1" class="node">
<title>AuthModule</title>
<polygon fill="#8dd3c7" stroke="black" points="263.55,-228.8 260.55,-232.8 239.55,-232.8 236.55,-228.8 176.45,-228.8 176.45,-192.8 263.55,-192.8 263.55,-228.8"/>
<text text-anchor="middle" x="220" y="-206.6" font-family="Times,serif" font-size="14.00">AuthModule</text>
</g>
<!-- AppModule -->
<g id="node3" class="node">
<title>AppModule</title>
<polygon fill="#8dd3c7" stroke="black" points="198.66,-293.8 195.66,-297.8 174.66,-297.8 171.66,-293.8 115.34,-293.8 115.34,-257.8 198.66,-257.8 198.66,-293.8"/>
<text text-anchor="middle" x="157" y="-271.6" font-family="Times,serif" font-size="14.00">AppModule</text>
</g>
<!-- AuthModule&#45;&gt;AppModule -->
<g id="edge1" class="edge">
<title>AuthModule&#45;&gt;AppModule</title>
<path fill="none" stroke="black" d="M187.53,-228.91C187.53,-228.91 187.53,-247.79 187.53,-247.79"/>
<polygon fill="black" stroke="black" points="184.03,-247.79 187.53,-257.79 191.03,-247.79 184.03,-247.79"/>
</g>
<!-- AuthService  -->
<g id="node5" class="node">
<title>AuthService </title>
<polygon fill="#fb8072" stroke="black" points="978.98,-160.8 889.02,-160.8 889.02,-124.8 978.98,-124.8 978.98,-160.8"/>
<text text-anchor="middle" x="934" y="-138.6" font-family="Times,serif" font-size="14.00">AuthService </text>
</g>
<!-- AuthModule&#45;&gt;AuthService  -->
<g id="edge5" class="edge">
<title>AuthModule&#45;&gt;AuthService </title>
<path fill="none" stroke="black" stroke-dasharray="5,2" d="M263.59,-222.8C418.61,-222.8 934,-222.8 934,-222.8 934,-222.8 934,-170.95 934,-170.95"/>
<polygon fill="black" stroke="black" points="937.5,-170.95 934,-160.95 930.5,-170.95 937.5,-170.95"/>
</g>
<!-- UsersModule -->
<g id="node2" class="node">
<title>UsersModule</title>
<polygon fill="#8dd3c7" stroke="black" points="263.92,-160.8 260.92,-164.8 239.92,-164.8 236.92,-160.8 172.08,-160.8 172.08,-124.8 263.92,-124.8 263.92,-160.8"/>
<text text-anchor="middle" x="218" y="-138.6" font-family="Times,serif" font-size="14.00">UsersModule</text>
</g>
<!-- UsersModule&#45;&gt;AuthModule -->
<g id="edge4" class="edge">
<title>UsersModule&#45;&gt;AuthModule</title>
<path fill="none" stroke="black" d="M219.97,-161.02C219.97,-161.02 219.97,-182.53 219.97,-182.53"/>
<polygon fill="black" stroke="black" points="216.47,-182.53 219.97,-192.53 223.47,-182.53 216.47,-182.53"/>
</g>
<!-- UsersModule&#45;&gt;AppModule -->
<g id="edge2" class="edge">
<title>UsersModule&#45;&gt;AppModule</title>
<path fill="none" stroke="black" d="M171.81,-136.8C166.68,-136.8 163.25,-136.8 163.25,-136.8 163.25,-136.8 163.25,-247.63 163.25,-247.63"/>
<polygon fill="black" stroke="black" points="159.76,-247.63 163.25,-257.63 166.76,-247.63 159.76,-247.63"/>
</g>
<!-- UserService  -->
<g id="node10" class="node">
<title>UserService </title>
<polygon fill="#fb8072" stroke="black" points="374.9,-84.8 287.1,-84.8 287.1,-48.8 374.9,-48.8 374.9,-84.8"/>
<text text-anchor="middle" x="331" y="-62.6" font-family="Times,serif" font-size="14.00">UserService </text>
</g>
<!-- UsersModule&#45;&gt;UserService  -->
<g id="edge10" class="edge">
<title>UsersModule&#45;&gt;UserService </title>
<path fill="none" stroke="black" stroke-dasharray="5,2" d="M263.93,-142.8C280.6,-142.8 295.42,-142.8 295.42,-142.8 295.42,-142.8 295.42,-94.81 295.42,-94.81"/>
<polygon fill="black" stroke="black" points="298.92,-94.81 295.42,-84.81 291.92,-94.81 298.92,-94.81"/>
</g>
<!-- AppService -->
<g id="node4" class="node">
<title>AppService</title>
<ellipse fill="#fdb462" stroke="black" cx="81" cy="-210.8" rx="56.74" ry="18"/>
<text text-anchor="middle" x="81" y="-206.6" font-family="Times,serif" font-size="14.00">AppService</text>
</g>
<!-- AppService&#45;&gt;AppModule -->
<g id="edge3" class="edge">
<title>AppService&#45;&gt;AppModule</title>
<path fill="none" stroke="black" d="M126.4,-221.83C126.4,-221.83 126.4,-247.58 126.4,-247.58"/>
<polygon fill="black" stroke="black" points="122.9,-247.58 126.4,-257.58 129.9,-247.58 122.9,-247.58"/>
</g>
<!-- AuthService -->
<g id="node6" class="node">
<title>AuthService</title>
<ellipse fill="#fdb462" stroke="black" cx="806" cy="-142.8" rx="59.11" ry="18"/>
<text text-anchor="middle" x="806" y="-138.6" font-family="Times,serif" font-size="14.00">AuthService</text>
</g>
<!-- AuthService&#45;&gt;AuthModule -->
<g id="edge6" class="edge">
<title>AuthService&#45;&gt;AuthModule</title>
<path fill="none" stroke="black" d="M806,-161.09C806,-183.01 806,-216.8 806,-216.8 806,-216.8 273.57,-216.8 273.57,-216.8"/>
<polygon fill="black" stroke="black" points="273.57,-213.3 263.57,-216.8 273.57,-220.3 273.57,-213.3"/>
</g>
<!-- EncryptionUtils -->
<g id="node7" class="node">
<title>EncryptionUtils</title>
<ellipse fill="#fdb462" stroke="black" cx="656" cy="-142.8" rx="72.95" ry="18"/>
<text text-anchor="middle" x="656" y="-138.6" font-family="Times,serif" font-size="14.00">EncryptionUtils</text>
</g>
<!-- EncryptionUtils&#45;&gt;AuthModule -->
<g id="edge7" class="edge">
<title>EncryptionUtils&#45;&gt;AuthModule</title>
<path fill="none" stroke="black" d="M656,-161.02C656,-181.17 656,-210.8 656,-210.8 656,-210.8 273.8,-210.8 273.8,-210.8"/>
<polygon fill="black" stroke="black" points="273.8,-207.3 263.8,-210.8 273.8,-214.3 273.8,-207.3"/>
</g>
<!-- JwtStrategy -->
<g id="node8" class="node">
<title>JwtStrategy</title>
<ellipse fill="#fdb462" stroke="black" cx="509" cy="-142.8" rx="56.76" ry="18"/>
<text text-anchor="middle" x="509" y="-138.6" font-family="Times,serif" font-size="14.00">JwtStrategy</text>
</g>
<!-- JwtStrategy&#45;&gt;AuthModule -->
<g id="edge8" class="edge">
<title>JwtStrategy&#45;&gt;AuthModule</title>
<path fill="none" stroke="black" d="M509,-161.07C509,-179.36 509,-204.8 509,-204.8 509,-204.8 273.58,-204.8 273.58,-204.8"/>
<polygon fill="black" stroke="black" points="273.58,-201.3 263.58,-204.8 273.58,-208.3 273.58,-201.3"/>
</g>
<!-- LocalStrategy -->
<g id="node9" class="node">
<title>LocalStrategy</title>
<ellipse fill="#fdb462" stroke="black" cx="369" cy="-142.8" rx="65.41" ry="18"/>
<text text-anchor="middle" x="369" y="-138.6" font-family="Times,serif" font-size="14.00">LocalStrategy</text>
</g>
<!-- LocalStrategy&#45;&gt;AuthModule -->
<g id="edge9" class="edge">
<title>LocalStrategy&#45;&gt;AuthModule</title>
<path fill="none" stroke="black" d="M369,-160.83C369,-177.2 369,-198.8 369,-198.8 369,-198.8 273.9,-198.8 273.9,-198.8"/>
<polygon fill="black" stroke="black" points="273.9,-195.3 263.9,-198.8 273.9,-202.3 273.9,-195.3"/>
</g>
<!-- UserDao -->
<g id="node11" class="node">
<title>UserDao</title>
<ellipse fill="#fdb462" stroke="black" cx="218" cy="-66.8" rx="45.2" ry="18"/>
<text text-anchor="middle" x="218" y="-62.6" font-family="Times,serif" font-size="14.00">UserDao</text>
</g>
<!-- UserDao&#45;&gt;UsersModule -->
<g id="edge11" class="edge">
<title>UserDao&#45;&gt;UsersModule</title>
<path fill="none" stroke="black" d="M218,-84.81C218,-84.81 218,-114.65 218,-114.65"/>
<polygon fill="black" stroke="black" points="214.5,-114.65 218,-124.65 221.5,-114.65 214.5,-114.65"/>
</g>
<!-- UserService -->
<g id="node12" class="node">
<title>UserService</title>
<ellipse fill="#fdb462" stroke="black" cx="96" cy="-66.8" rx="58.44" ry="18"/>
<text text-anchor="middle" x="96" y="-62.6" font-family="Times,serif" font-size="14.00">UserService</text>
</g>
<!-- UserService&#45;&gt;UsersModule -->
<g id="edge12" class="edge">
<title>UserService&#45;&gt;UsersModule</title>
<path fill="none" stroke="black" d="M145.92,-76.21C145.92,-97.75 145.92,-148.8 145.92,-148.8 145.92,-148.8 161.94,-148.8 161.94,-148.8"/>
<polygon fill="black" stroke="black" points="161.94,-152.3 171.94,-148.8 161.94,-145.3 161.94,-152.3"/>
</g>
</g>
</svg>
